<svg width="18" height="18" viewBox="0 0 18 18" fill="none" xmlns="http://www.w3.org/2000/svg">
<path d="M1.71527 0L1.32934 0.364495L0.364495 1.32934L0 1.71527L0.278732 2.16553L1.71527 4.56691L1.90824 4.90996H3.92368L6.66812 7.63296C4.21581 10.096 1.09617 13.2263 0.986281 13.3362C-0.0884435 14.411 -0.0911235 16.1718 1.00772 17.1956C2.07977 18.2542 3.8272 18.281 4.84564 17.1956L4.86708 17.1742L9.09094 12.9289L13.3362 17.1956L13.4006 17.2385C14.478 18.2542 16.1906 18.2676 17.1956 17.1956V17.1742H17.217C18.2676 16.0994 18.2784 14.352 17.1956 13.3362L17.1742 13.3148L13.5935 9.7556C16.0029 9.53047 17.8897 7.49627 17.9246 5.03861H17.946C17.9487 5.02521 17.946 5.00913 17.946 4.99573C17.946 4.98769 17.946 4.98233 17.946 4.97429C18.013 4.18097 17.8415 3.4225 17.4314 2.76587L16.9597 2.03688L13.7651 5.23158L12.8002 4.22386L16.0592 0.96484L15.1158 0.578904C14.5637 0.343054 13.9259 0.171527 13.2076 0.171527C10.5704 0.171527 8.40483 2.33706 8.40483 4.97429C8.40483 5.26106 8.46647 5.51031 8.51203 5.7676C8.21186 6.06777 7.98673 6.31434 7.63296 6.66812L4.90996 3.94512V1.90824L4.56691 1.71527L2.16553 0.278732L1.71527 0ZM13.2076 1.54374C13.3041 1.54374 13.3711 1.60003 13.4649 1.60807L10.8705 4.20241L11.3422 4.69555L13.2719 6.68956L13.7436 7.1827L16.4666 4.4597C16.48 4.61783 16.5926 4.73308 16.5738 4.90996V4.97429C16.5738 6.86376 15.0327 8.40483 13.1433 8.40483C12.8913 8.40483 12.5858 8.34587 12.2427 8.27618L11.8783 8.21186L11.621 8.46915L3.8808 16.2308H3.85936V16.2522C3.37158 16.7855 2.5193 16.7989 1.95112 16.2308V16.2093H1.92968C1.39634 15.7215 1.38294 14.8693 1.95112 14.3011C2.21109 14.0411 7.24702 8.96229 9.71272 6.49659L9.99145 6.21786L9.88425 5.83192C9.82797 5.60947 9.77705 5.22622 9.77705 4.97429C9.77705 3.08481 11.3181 1.54374 13.2076 1.54374ZM1.92968 1.71527L3.53775 2.70155V3.38766L3.38766 3.53775H2.70155L1.71527 1.92968L1.92968 1.71527ZM11.964 10.0558L16.2308 14.3011V14.3225H16.2522C16.7855 14.8103 16.7989 15.6626 16.2308 16.2308H16.2093V16.2522C15.7215 16.7855 14.8693 16.7989 14.3011 16.2308L10.0558 11.964L11.964 10.0558Z" fill="black"/>
</svg>
