<svg width="30" height="31" viewBox="0 0 30 31" fill="none" xmlns="http://www.w3.org/2000/svg">
<path d="M6.71518 30.7493H0.495536V10.7203H6.71518V30.7493ZM3.60201 7.98817C1.61317 7.98817 0 6.34085 0 4.35201C1.42353e-08 3.3967 0.379496 2.48051 1.055 1.805C1.73051 1.1295 2.6467 0.75 3.60201 0.75C4.55732 0.75 5.47351 1.1295 6.14901 1.805C6.82452 2.48051 7.20402 3.3967 7.20402 4.35201C7.20402 6.34085 5.59018 7.98817 3.60201 7.98817ZM29.9933 30.7493H23.7871V20.9993C23.7871 18.6757 23.7402 15.6958 20.5533 15.6958C17.3196 15.6958 16.8241 18.2203 16.8241 20.8319V30.7493H10.6112V10.7203H16.5763V13.4525H16.6634C17.4937 11.8788 19.5221 10.2181 22.5482 10.2181C28.8429 10.2181 30 14.3632 30 19.7471V30.7493H29.9933Z" fill="#282828"/>
</svg>
