<svg width="31" height="40" viewBox="0 0 31 40" fill="none" xmlns="http://www.w3.org/2000/svg">
<path d="M10.9537 12.0899C12.111 12.0899 13.041 11.1599 13.041 10.0026C13.041 8.84525 12.111 7.91525 10.9537 7.91525C9.79633 7.91525 8.86633 8.84525 8.86633 10.0026C8.86633 11.1599 9.79633 12.0899 10.9537 12.0899Z" fill="#282828"/>
<path fill-rule="evenodd" clip-rule="evenodd" d="M15.1486 16.6367C15.1486 14.4047 13.2679 12.7927 10.9533 12.7927C8.6386 12.7927 6.75793 14.4047 6.75793 16.6367V17.6907C6.75793 17.8767 6.8406 18.0627 6.9646 18.1867C7.0886 18.3107 7.2746 18.3934 7.4606 18.3934H14.4459C14.6319 18.3934 14.8179 18.3107 14.9419 18.1867C15.0659 18.0627 15.1486 17.8767 15.1486 17.6907V16.6367Z" fill="#282828"/>
<path fill-rule="evenodd" clip-rule="evenodd" d="M6.71692 22.7332C6.71692 21.8772 7.41088 21.1832 8.26692 21.1832H22.7336C23.5896 21.1832 24.2836 21.8772 24.2836 22.7332C24.2836 23.5892 23.5896 24.2832 22.7336 24.2832H8.26692C7.41088 24.2832 6.71692 23.5892 6.71692 22.7332Z" fill="#282828"/>
<path fill-rule="evenodd" clip-rule="evenodd" d="M6.71692 28.9333C6.71692 28.0773 7.41088 27.3833 8.26692 27.3833H22.7336C23.5896 27.3833 24.2836 28.0773 24.2836 28.9333C24.2836 29.7893 23.5896 30.4833 22.7336 30.4833H8.26692C7.41088 30.4833 6.71692 29.7893 6.71692 28.9333Z" fill="#282828"/>
<path fill-rule="evenodd" clip-rule="evenodd" d="M0 4.13333C0 1.85529 1.85529 0 4.13333 0H17.9593C19.1204 0 20.2153 0.49221 20.987 1.30458L20.9996 1.31779L29.9109 11.0354C30.6528 11.8283 31 12.8638 31 13.8467V35.1333C31 37.4114 29.1448 39.2667 26.8667 39.2667H4.13333C1.85529 39.2667 0 37.4114 0 35.1333V4.13333ZM17.9573 4.13333H4.13333V35.1333H26.8667V13.8467C26.8667 13.8415 26.8663 13.8356 26.8652 13.8298L17.9874 4.14867L17.9825 4.14491C17.9781 4.14191 17.9734 4.13918 17.9684 4.13701C17.9624 4.13445 17.9573 4.13333 17.9573 4.13333Z" fill="#282828"/>
<path fill-rule="evenodd" clip-rule="evenodd" d="M17.959 0C19.1004 0 20.0257 0.925278 20.0257 2.06667V11.78H28.933C30.0744 11.78 30.9997 12.7053 30.9997 13.8467C30.9997 14.988 30.0744 15.9133 28.933 15.9133H17.959C16.8176 15.9133 15.8923 14.988 15.8923 13.8467V2.06667C15.8923 0.925278 16.8176 0 17.959 0Z" fill="#282828"/>
</svg>
