<svg width="140" height="112" viewBox="0 0 140 112" fill="none" xmlns="http://www.w3.org/2000/svg">
<path d="M55.7878 57.2359C57.155 58.6031 59.3709 58.6031 60.7381 57.2359L63.2122 54.7619C64.5794 53.3947 64.5794 51.1788 63.2122 49.8116L55.3984 42L63.21 34.1862C64.5772 32.8191 64.5772 30.6031 63.21 29.2359L60.7359 26.7619C59.3687 25.3947 57.1528 25.3947 55.7856 26.7619L43.0238 39.5238C41.6566 40.8909 41.6566 43.1069 43.0238 44.4741L55.7878 57.2359ZM76.79 54.7641L79.2641 57.2381C80.6312 58.6053 82.8472 58.6053 84.2144 57.2381L96.9762 44.4762C98.3434 43.1091 98.3434 40.8931 96.9762 39.5259L84.2144 26.7641C82.8472 25.3969 80.6312 25.3969 79.2641 26.7641L76.79 29.2381C75.4228 30.6053 75.4228 32.8212 76.79 34.1884L84.6016 42L76.79 49.8138C75.4228 51.1809 75.4228 53.3969 76.79 54.7641ZM136.5 91H83.4619C83.3 95.3334 80.2441 98 76.3 98H63C58.9116 98 55.7769 94.1784 55.8316 91H3.5C1.575 91 0 92.575 0 94.5V98C0 105.7 6.3 112 14 112H126C133.7 112 140 105.7 140 98V94.5C140 92.575 138.425 91 136.5 91ZM126 10.5C126 4.725 121.275 0 115.5 0H24.5C18.725 0 14 4.725 14 10.5V84H126V10.5ZM112 70H28V14H112V70Z" fill="white"/>
</svg>
