<svg width="18" height="24" viewBox="0 0 18 24" fill="none" xmlns="http://www.w3.org/2000/svg">
<path d="M7.7386 22.8514C1.21154 13.6531 0 12.7091 0 9.32855C0 4.69799 3.86153 0.944214 8.625 0.944214C13.3885 0.944214 17.25 4.69799 17.25 9.32855C17.25 12.7091 16.0385 13.6531 9.5114 22.8514C9.08307 23.4528 8.16689 23.4528 7.7386 22.8514ZM8.625 12.822C10.6098 12.822 12.2187 11.258 12.2187 9.32855C12.2187 7.39915 10.6098 5.83508 8.625 5.83508C6.64022 5.83508 5.03125 7.39915 5.03125 9.32855C5.03125 11.258 6.64022 12.822 8.625 12.822Z" fill="#FF5656"/>
</svg>
