<svg height="124" viewBox="0 0 105 124" width="105" xmlns="http://www.w3.org/2000/svg" xmlns:xlink="http://www.w3.org/1999/xlink"><clipPath id="a"><path d="m8953-230h105v124h-105z"/></clipPath><clipPath id="b"><path d="m0 0h138.918v158.521h-138.918z"/></clipPath><g clip-path="url(#a)" transform="translate(-8953 230)"><g transform="translate(8936.041 -247.261)"><path d="m0 0h105.367v124.781h-105.367z" fill="#0feca0" transform="translate(16.65 16.524)"/><path d="m63.438 173.281-3.456-7.854-4.9 11.247zm5.026 6.22h-2.325l-1.885-4.335-10.429 4.334h-2.325l7.414-16.9h2.136z" fill="#fff" transform="translate(-19.142 -60.438)"/><g clip-path="url(#b)"><g fill="#fff"><path d="m94.467 178.082a4.746 4.746 0 0 1 -3.393 1.382h-6.409v-2.136h6.472a2.66 2.66 0 0 0 1.885-.754 2.557 2.557 0 0 0 .754-1.885 2.577 2.577 0 0 0 -2.639-2.639h-2.262a4.969 4.969 0 0 1 -3.393-1.382 4.746 4.746 0 0 1 -1.382-3.393 4.969 4.969 0 0 1 1.382-3.393 4.746 4.746 0 0 1 3.393-1.382h5.906v2.136h-5.906a2.639 2.639 0 1 0 0 5.278h2.262a4.969 4.969 0 0 1 3.393 1.386 4.746 4.746 0 0 1 1.382 3.393 4.556 4.556 0 0 1 -1.445 3.393" transform="translate(-31.26 -60.401)"/><path d="m118.83 178.082a4.746 4.746 0 0 1 -3.393 1.382h-6.472v-2.136h6.472a2.66 2.66 0 0 0 1.885-.754 2.557 2.557 0 0 0 .754-1.885 2.577 2.577 0 0 0 -2.639-2.639h-2.262a4.969 4.969 0 0 1 -3.393-1.382 4.745 4.745 0 0 1 -1.382-3.393 4.969 4.969 0 0 1 1.382-3.393 4.746 4.746 0 0 1 3.393-1.382h5.906v2.136h-5.906a2.639 2.639 0 1 0 0 5.278h2.262a4.969 4.969 0 0 1 3.393 1.382 4.855 4.855 0 0 1 0 6.786" transform="translate(-40.292 -60.401)"/><path d="m133.277 159.7h2.136v16.9h-2.136zm-.377-3.518a1.382 1.382 0 1 1 1.382 1.382 1.395 1.395 0 0 1 -1.382-1.382" transform="translate(-49.398 -57.539)"/><path d="m154.875 173.281-3.393-7.791-4.9 11.247zm5.089 6.22h-2.325l-1.885-4.335-10.43 4.335h-2.324l7.414-16.9h2.136z" transform="translate(-53.153 -60.438)"/><path d="m82.766 105.085 12.126-27.9h1.068l10.367 23.184zm14.577-42.285h-4.084l-23.059 52.463 39.269-7.791 3.33 7.163 5.4-5.278z" transform="translate(-26.093 -23.343)"/></g><path d="m0 0h4.712v4.712h-4.712z" fill="#12006c" transform="translate(112.215 114.288)"/></g></g></g></svg>