<svg width="1440" height="1024" viewBox="0 0 1440 1024" fill="none" xmlns="http://www.w3.org/2000/svg">
<g clip-path="url(#clip0_109_7)">
<path d="M678 408.9L801 407.9L667 283.6L678 408.9Z" fill="#2A2A2A" stroke="#2A2A2A" stroke-linejoin="bevel"/>
<path d="M801 407.9L818 289.6L667 283.6L801 407.9Z" fill="#282828" stroke="#282828" stroke-linejoin="bevel"/>
<path d="M801 407.9L929 256.6L818 289.6L801 407.9Z" fill="#303030" stroke="#303030" stroke-linejoin="bevel"/>
<path d="M818 289.6L794 132.3L667 283.6L818 289.6Z" fill="#282828" stroke="#282828" stroke-linejoin="bevel"/>
<path d="M929 256.6L794 132.3L818 289.6L929 256.6Z" fill="#292929" stroke="#292929" stroke-linejoin="bevel"/>
<path d="M794 132.3L670 128.3L667 283.6L794 132.3Z" fill="#292929" stroke="#292929" stroke-linejoin="bevel"/>
<path d="M678 408.9L811 591.1L801 407.9L678 408.9Z" fill="#2F2F2F" stroke="#2F2F2F" stroke-linejoin="bevel"/>
<path d="M801 407.9L980 477.9L929 256.6L801 407.9Z" fill="#2A2A2A" stroke="#2A2A2A" stroke-linejoin="bevel"/>
<path d="M466 316.6L678 408.9L667 283.6L466 316.6Z" fill="#2D2D2D" stroke="#2D2D2D" stroke-linejoin="bevel"/>
<path d="M466 316.6L496 465.9L678 408.9L466 316.6Z" fill="#2E2E2E" stroke="#2E2E2E" stroke-linejoin="bevel"/>
<path d="M678 408.9L637 623.1L811 591.1L678 408.9Z" fill="#2A2A2A" stroke="#2A2A2A" stroke-linejoin="bevel"/>
<path d="M489 165.3L466 316.6L667 283.6L489 165.3Z" fill="#2A2A2A" stroke="#2A2A2A" stroke-linejoin="bevel"/>
<path d="M811 591.1L980 477.9L801 407.9L811 591.1Z" fill="#2D2D2D" stroke="#2D2D2D" stroke-linejoin="bevel"/>
<path d="M1149 267.6L986 174.3L929 256.6L1149 267.6Z" fill="#2F2F2F" stroke="#2F2F2F" stroke-linejoin="bevel"/>
<path d="M929 256.6L986 174.3L794 132.3L929 256.6Z" fill="#2F2F2F" stroke="#2F2F2F" stroke-linejoin="bevel"/>
<path d="M496 465.9L637 623.1L678 408.9L496 465.9Z" fill="#2C2C2C" stroke="#2C2C2C" stroke-linejoin="bevel"/>
<path d="M670 128.3L489 165.3L667 283.6L670 128.3Z" fill="#313131" stroke="#313131" stroke-linejoin="bevel"/>
<path d="M811 591.1L967 593.1L980 477.9L811 591.1Z" fill="#2D2D2D" stroke="#2D2D2D" stroke-linejoin="bevel"/>
<path d="M987 761.4L967 593.1L811 591.1L987 761.4Z" fill="#292929" stroke="#292929" stroke-linejoin="bevel"/>
<path d="M937 0H801L794 132.3L937 0Z" fill="#2F2F2F" stroke="#2F2F2F" stroke-linejoin="bevel"/>
<path d="M794 132.3L801 0L670 128.3L794 132.3Z" fill="#2C2C2C" stroke="#2C2C2C" stroke-linejoin="bevel"/>
<path d="M670 128.3L492 0L489 165.3L670 128.3Z" fill="#292929" stroke="#292929" stroke-linejoin="bevel"/>
<path d="M801 0H653L670 128.3L801 0Z" fill="#2E2E2E" stroke="#2E2E2E" stroke-linejoin="bevel"/>
<path d="M496 465.9L518 622.1L637 623.1L496 465.9Z" fill="#313131" stroke="#313131" stroke-linejoin="bevel"/>
<path d="M310 553.1L518 622.1L496 465.9L310 553.1Z" fill="#2A2A2A" stroke="#2A2A2A" stroke-linejoin="bevel"/>
<path d="M986 174.3L937 0L794 132.3L986 174.3Z" fill="#2F2F2F" stroke="#2F2F2F" stroke-linejoin="bevel"/>
<path d="M610 732.4L766 737.4L637 623.1L610 732.4Z" fill="#313131" stroke="#313131" stroke-linejoin="bevel"/>
<path d="M637 623.1L766 737.4L811 591.1L637 623.1Z" fill="#313131" stroke="#313131" stroke-linejoin="bevel"/>
<path d="M967 593.1L1122 467.9L980 477.9L967 593.1Z" fill="#313131" stroke="#313131" stroke-linejoin="bevel"/>
<path d="M980 477.9L1149 267.6L929 256.6L980 477.9Z" fill="#2D2D2D" stroke="#2D2D2D" stroke-linejoin="bevel"/>
<path d="M986 174.3L1086 119.3L937 0L986 174.3Z" fill="#292929" stroke="#292929" stroke-linejoin="bevel"/>
<path d="M1149 267.6L1086 119.3L986 174.3L1149 267.6Z" fill="#2C2C2C" stroke="#2C2C2C" stroke-linejoin="bevel"/>
<path d="M518 622.1L610 732.4L637 623.1L518 622.1Z" fill="#303030" stroke="#303030" stroke-linejoin="bevel"/>
<path d="M339 163.3L326 331.6L466 316.6L339 163.3Z" fill="#2A2A2A" stroke="#2A2A2A" stroke-linejoin="bevel"/>
<path d="M466 316.6L326 331.6L496 465.9L466 316.6Z" fill="#2D2D2D" stroke="#2D2D2D" stroke-linejoin="bevel"/>
<path d="M1122 467.9L1149 267.6L980 477.9L1122 467.9Z" fill="#2D2D2D" stroke="#2D2D2D" stroke-linejoin="bevel"/>
<path d="M653 0H492L670 128.3L653 0Z" fill="#2D2D2D" stroke="#2D2D2D" stroke-linejoin="bevel"/>
<path d="M489 165.3L339 163.3L466 316.6L489 165.3Z" fill="#2B2B2B" stroke="#2B2B2B" stroke-linejoin="bevel"/>
<path d="M492 0L339 163.3L489 165.3L492 0Z" fill="#303030" stroke="#303030" stroke-linejoin="bevel"/>
<path d="M151 403.9L297 462.9L326 331.6L151 403.9Z" fill="#2A2A2A" stroke="#2A2A2A" stroke-linejoin="bevel"/>
<path d="M326 331.6L297 462.9L496 465.9L326 331.6Z" fill="#2C2C2C" stroke="#2C2C2C" stroke-linejoin="bevel"/>
<path d="M518 622.1L444 746.4L610 732.4L518 622.1Z" fill="#282828" stroke="#282828" stroke-linejoin="bevel"/>
<path d="M967 593.1L1136 607.1L1122 467.9L967 593.1Z" fill="#2E2E2E" stroke="#2E2E2E" stroke-linejoin="bevel"/>
<path d="M1305 398.9L1283 279.6L1149 267.6L1305 398.9Z" fill="#2F2F2F" stroke="#2F2F2F" stroke-linejoin="bevel"/>
<path d="M987 761.4L1136 607.1L967 593.1L987 761.4Z" fill="#303030" stroke="#303030" stroke-linejoin="bevel"/>
<path d="M297 462.9L310 553.1L496 465.9L297 462.9Z" fill="#2B2B2B" stroke="#2B2B2B" stroke-linejoin="bevel"/>
<path d="M766 737.4L987 761.4L811 591.1L766 737.4Z" fill="#2B2B2B" stroke="#2B2B2B" stroke-linejoin="bevel"/>
<path d="M824 844.7L987 761.4L766 737.4L824 844.7Z" fill="#2D2D2D" stroke="#2D2D2D" stroke-linejoin="bevel"/>
<path d="M310 553.1L444 746.4L518 622.1L310 553.1Z" fill="#2D2D2D" stroke="#2D2D2D" stroke-linejoin="bevel"/>
<path d="M635 843.7L824 844.7L766 737.4L635 843.7Z" fill="#2F2F2F" stroke="#2F2F2F" stroke-linejoin="bevel"/>
<path d="M635 843.7L766 737.4L610 732.4L635 843.7Z" fill="#2D2D2D" stroke="#2D2D2D" stroke-linejoin="bevel"/>
<path d="M514 907.7L635 843.7L610 732.4L514 907.7Z" fill="#2D2D2D" stroke="#2D2D2D" stroke-linejoin="bevel"/>
<path d="M1301 171.3L1137 0L1086 119.3L1301 171.3Z" fill="#303030" stroke="#303030" stroke-linejoin="bevel"/>
<path d="M1086 119.3L1137 0H937L1086 119.3Z" fill="#2A2A2A" stroke="#2A2A2A" stroke-linejoin="bevel"/>
<path d="M492 0H328L339 163.3L492 0Z" fill="#2F2F2F" stroke="#2F2F2F" stroke-linejoin="bevel"/>
<path d="M339 163.3L198 257.6L326 331.6L339 163.3Z" fill="#2B2B2B" stroke="#2B2B2B" stroke-linejoin="bevel"/>
<path d="M763 1024L926 848.7L824 844.7L763 1024Z" fill="#2D2D2D" stroke="#2D2D2D" stroke-linejoin="bevel"/>
<path d="M824 844.7L926 848.7L987 761.4L824 844.7Z" fill="#2C2C2C" stroke="#2C2C2C" stroke-linejoin="bevel"/>
<path d="M987 761.4L1148 725.4L1136 607.1L987 761.4Z" fill="#2A2A2A" stroke="#2A2A2A" stroke-linejoin="bevel"/>
<path d="M152 147.3L198 257.6L339 163.3L152 147.3Z" fill="#2B2B2B" stroke="#2B2B2B" stroke-linejoin="bevel"/>
<path d="M297 462.9L156 566.1L310 553.1L297 462.9Z" fill="#2C2C2C" stroke="#2C2C2C" stroke-linejoin="bevel"/>
<path d="M1305 398.9L1149 267.6L1122 467.9L1305 398.9Z" fill="#2F2F2F" stroke="#2F2F2F" stroke-linejoin="bevel"/>
<path d="M1149 267.6L1301 171.3L1086 119.3L1149 267.6Z" fill="#2D2D2D" stroke="#2D2D2D" stroke-linejoin="bevel"/>
<path d="M1115 913.7L1148 725.4L987 761.4L1115 913.7Z" fill="#282828" stroke="#282828" stroke-linejoin="bevel"/>
<path d="M1308 619.1L1305 398.9L1122 467.9L1308 619.1Z" fill="#2A2A2A" stroke="#2A2A2A" stroke-linejoin="bevel"/>
<path d="M1308 619.1L1122 467.9L1136 607.1L1308 619.1Z" fill="#2D2D2D" stroke="#2D2D2D" stroke-linejoin="bevel"/>
<path d="M1283 279.6L1301 171.3L1149 267.6L1283 279.6Z" fill="#303030" stroke="#303030" stroke-linejoin="bevel"/>
<path d="M1440 285.6L1301 171.3L1283 279.6L1440 285.6Z" fill="#282828" stroke="#282828" stroke-linejoin="bevel"/>
<path d="M444 746.4L514 907.7L610 732.4L444 746.4Z" fill="#313131" stroke="#313131" stroke-linejoin="bevel"/>
<path d="M310 553.1L315 748.4L444 746.4L310 553.1Z" fill="#292929" stroke="#292929" stroke-linejoin="bevel"/>
<path d="M156 566.1L315 748.4L310 553.1L156 566.1Z" fill="#292929" stroke="#292929" stroke-linejoin="bevel"/>
<path d="M198 257.6L151 403.9L326 331.6L198 257.6Z" fill="#2A2A2A" stroke="#2A2A2A" stroke-linejoin="bevel"/>
<path d="M290 914.7L514 907.7L444 746.4L290 914.7Z" fill="#292929" stroke="#292929" stroke-linejoin="bevel"/>
<path d="M635 843.7L763 1024L824 844.7L635 843.7Z" fill="#2A2A2A" stroke="#2A2A2A" stroke-linejoin="bevel"/>
<path d="M328 0L152 147.3L339 163.3L328 0Z" fill="#313131" stroke="#313131" stroke-linejoin="bevel"/>
<path d="M198 257.6L0 273.6L151 403.9L198 257.6Z" fill="#2E2E2E" stroke="#2E2E2E" stroke-linejoin="bevel"/>
<path d="M1276 837.7L1248 702.4L1148 725.4L1276 837.7Z" fill="#2D2D2D" stroke="#2D2D2D" stroke-linejoin="bevel"/>
<path d="M1148 725.4L1248 702.4L1136 607.1L1148 725.4Z" fill="#2F2F2F" stroke="#2F2F2F" stroke-linejoin="bevel"/>
<path d="M151 403.9L156 566.1L297 462.9L151 403.9Z" fill="#2A2A2A" stroke="#2A2A2A" stroke-linejoin="bevel"/>
<path d="M1248 702.4L1308 619.1L1136 607.1L1248 702.4Z" fill="#303030" stroke="#303030" stroke-linejoin="bevel"/>
<path d="M1301 171.3L1278 0H1137L1301 171.3Z" fill="#313131" stroke="#313131" stroke-linejoin="bevel"/>
<path d="M328 0H173L152 147.3L328 0Z" fill="#292929" stroke="#292929" stroke-linejoin="bevel"/>
<path d="M611 1024H763L635 843.7L611 1024Z" fill="#2A2A2A" stroke="#2A2A2A" stroke-linejoin="bevel"/>
<path d="M926 848.7L1115 913.7L987 761.4L926 848.7Z" fill="#2A2A2A" stroke="#2A2A2A" stroke-linejoin="bevel"/>
<path d="M981 1024L1115 913.7L926 848.7L981 1024Z" fill="#292929" stroke="#292929" stroke-linejoin="bevel"/>
<path d="M1440 732.4V545.1L1308 619.1L1440 732.4Z" fill="#2B2B2B" stroke="#2B2B2B" stroke-linejoin="bevel"/>
<path d="M464 1024H611L514 907.7L464 1024Z" fill="#282828" stroke="#282828" stroke-linejoin="bevel"/>
<path d="M514 907.7L611 1024L635 843.7L514 907.7Z" fill="#2B2B2B" stroke="#2B2B2B" stroke-linejoin="bevel"/>
<path d="M1440 421.9V285.6L1305 398.9L1440 421.9Z" fill="#2D2D2D" stroke="#2D2D2D" stroke-linejoin="bevel"/>
<path d="M1305 398.9L1440 285.6L1283 279.6L1305 398.9Z" fill="#2E2E2E" stroke="#2E2E2E" stroke-linejoin="bevel"/>
<path d="M1301 171.3L1440 0H1278L1301 171.3Z" fill="#2B2B2B" stroke="#2B2B2B" stroke-linejoin="bevel"/>
<path d="M1440 545.1V421.9L1305 398.9L1440 545.1Z" fill="#292929" stroke="#292929" stroke-linejoin="bevel"/>
<path d="M1440 545.1L1305 398.9L1308 619.1L1440 545.1Z" fill="#2E2E2E" stroke="#2E2E2E" stroke-linejoin="bevel"/>
<path d="M1440 285.6V165.3L1301 171.3L1440 285.6Z" fill="#2F2F2F" stroke="#2F2F2F" stroke-linejoin="bevel"/>
<path d="M763 1024H981L926 848.7L763 1024Z" fill="#2C2C2C" stroke="#2C2C2C" stroke-linejoin="bevel"/>
<path d="M0 437.9L156 566.1L151 403.9L0 437.9Z" fill="#313131" stroke="#313131" stroke-linejoin="bevel"/>
<path d="M0 613.1L130 738.4L156 566.1L0 613.1Z" fill="#2B2B2B" stroke="#2B2B2B" stroke-linejoin="bevel"/>
<path d="M156 566.1L130 738.4L315 748.4L156 566.1Z" fill="#2F2F2F" stroke="#2F2F2F" stroke-linejoin="bevel"/>
<path d="M315 748.4L290 914.7L444 746.4L315 748.4Z" fill="#2E2E2E" stroke="#2E2E2E" stroke-linejoin="bevel"/>
<path d="M128 884.7L290 914.7L315 748.4L128 884.7Z" fill="#2C2C2C" stroke="#2C2C2C" stroke-linejoin="bevel"/>
<path d="M1440 732.4L1308 619.1L1248 702.4L1440 732.4Z" fill="#2E2E2E" stroke="#2E2E2E" stroke-linejoin="bevel"/>
<path d="M1291 1024L1276 837.7L1115 913.7L1291 1024Z" fill="#2A2A2A" stroke="#2A2A2A" stroke-linejoin="bevel"/>
<path d="M1115 913.7L1276 837.7L1148 725.4L1115 913.7Z" fill="#313131" stroke="#313131" stroke-linejoin="bevel"/>
<path d="M290 914.7L464 1024L514 907.7L290 914.7Z" fill="#303030" stroke="#303030" stroke-linejoin="bevel"/>
<path d="M0 112.3V273.6L152 147.3L0 112.3Z" fill="#2A2A2A" stroke="#2A2A2A" stroke-linejoin="bevel"/>
<path d="M152 147.3L0 273.6L198 257.6L152 147.3Z" fill="#2C2C2C" stroke="#2C2C2C" stroke-linejoin="bevel"/>
<path d="M0 273.6V437.9L151 403.9L0 273.6Z" fill="#2A2A2A" stroke="#2A2A2A" stroke-linejoin="bevel"/>
<path d="M173 0L0 112.3L152 147.3L173 0Z" fill="#2C2C2C" stroke="#2C2C2C" stroke-linejoin="bevel"/>
<path d="M1440 165.3V0L1301 171.3L1440 165.3Z" fill="#2C2C2C" stroke="#2C2C2C" stroke-linejoin="bevel"/>
<path d="M0 437.9V613.1L156 566.1L0 437.9Z" fill="#2B2B2B" stroke="#2B2B2B" stroke-linejoin="bevel"/>
<path d="M176 1024H308L290 914.7L176 1024Z" fill="#2E2E2E" stroke="#2E2E2E" stroke-linejoin="bevel"/>
<path d="M981 1024H1138L1115 913.7L981 1024Z" fill="#292929" stroke="#292929" stroke-linejoin="bevel"/>
<path d="M1440 916.7V732.4L1276 837.7L1440 916.7Z" fill="#2A2A2A" stroke="#2A2A2A" stroke-linejoin="bevel"/>
<path d="M1276 837.7L1440 732.4L1248 702.4L1276 837.7Z" fill="#292929" stroke="#292929" stroke-linejoin="bevel"/>
<path d="M128 884.7L315 748.4L130 738.4L128 884.7Z" fill="#292929" stroke="#292929" stroke-linejoin="bevel"/>
<path d="M290 914.7L308 1024H464L290 914.7Z" fill="#2D2D2D" stroke="#2D2D2D" stroke-linejoin="bevel"/>
<path d="M173 0H0V112.3L173 0Z" fill="#2B2B2B" stroke="#2B2B2B" stroke-linejoin="bevel"/>
<path d="M0 752.4L128 884.7L130 738.4L0 752.4Z" fill="#313131" stroke="#313131" stroke-linejoin="bevel"/>
<path d="M0 613.1V752.4L130 738.4L0 613.1Z" fill="#2A2A2A" stroke="#2A2A2A" stroke-linejoin="bevel"/>
<path d="M1138 1024H1291L1115 913.7L1138 1024Z" fill="#303030" stroke="#303030" stroke-linejoin="bevel"/>
<path d="M0 1024H176L128 884.7L0 1024Z" fill="#2B2B2B" stroke="#2B2B2B" stroke-linejoin="bevel"/>
<path d="M128 884.7L176 1024L290 914.7L128 884.7Z" fill="#2B2B2B" stroke="#2B2B2B" stroke-linejoin="bevel"/>
<path d="M1291 1024L1440 916.7L1276 837.7L1291 1024Z" fill="#2A2A2A" stroke="#2A2A2A" stroke-linejoin="bevel"/>
<path d="M0 752.4V891.7L128 884.7L0 752.4Z" fill="#2A2A2A" stroke="#2A2A2A" stroke-linejoin="bevel"/>
<path d="M1291 1024H1440V916.7L1291 1024Z" fill="#2A2A2A" stroke="#2A2A2A" stroke-linejoin="bevel"/>
<path d="M0 891.7V1024L128 884.7L0 891.7Z" fill="#282828" stroke="#282828" stroke-linejoin="bevel"/>
</g>
<defs>
<clipPath id="clip0_109_7">
<rect width="1440" height="1024" fill="white"/>
</clipPath>
</defs>
</svg>
